<?xml version="1.0" encoding="utf-8"?>
<!-- Svg Vector Icons : http://www.onlinewebfonts.com/icon -->
<!DOCTYPE svg PUBLIC "-//W3C//DTD SVG 1.1//EN" "http://www.w3.org/Graphics/SVG/1.1/DTD/svg11.dtd">
<svg version="1.1" xmlns="http://www.w3.org/2000/svg" xmlns:xlink="http://www.w3.org/1999/xlink" x="0px" y="0px" viewBox="0 0 256 256" enable-background="new 0 0 256 256" xml:space="preserve">
<metadata> Svg Vector Icons : http://www.onlinewebfonts.com/icon </metadata>
<g><g><path fill="#000000" d="M223,88.2c2.7-0.6,10.1,3.3,16.9-0.2c10.7-5.5,4.9-7.9,0.7-9.8c-4.3-1.9-15.4-5.7-16.4-15.8c-1-10.1-9.4-13-9.4-13s3.9-19.9,0.2-21c-3.7-1.1-16.8,12.4-20.3,15.5c-12,0-24.7,15.8-25,34.1c-0.3,18.5-9.9,32.1-19.7,36.2c-56.1,18.3-59.5,52.1-59.3,77.4c0,6.7,0.7,12.4,1.9,17.1c-6-5.8-14.7-22.7-8.9-53.7c7.2-38.9-13.9-77.5-73.6-67.2c22,10.5,28.6,38.8,24.4,54.9c-9.1,34.5-11.8,85,54.6,85c7.8,0,14.1,0,19.1,0c3.3,0,11.5,0,20.1,0c12.9,0,26.8,0,26.8,0c5.2,0,12,0,12-4.9c0-5.5-19.2-7-20.7-8.4c0,0,32-2.4,34.4-33.5c0,0,26.6,46.5,35,46.6c8.5,0.1,14.3,0,19.7,0c4.6,0,6.4-2.6,6.4-6.2c0-3.7-5.4-5.3-8.4-5.3c-2.8,0-9,0.8-12.6-4.3c-18.3-23.5-17.5-41.4-17.5-50.7c0-4.5,1.4-7.8,3.3-11.1c13.2-23.6,15-27.3,15.1-36.1c0.1-8.8-6.5-17.4-7.7-19.3C212.9,92.5,217,89.4,223,88.2z"/><g></g><g></g><g></g><g></g><g></g><g></g><g></g><g></g><g></g><g></g><g></g><g></g><g></g><g></g><g></g></g></g>
</svg>